<svg xmlns="http://www.w3.org/2000/svg" width="1920" height="480" fill="none" viewBox="0 0 1920 480"><defs><radialGradient id="bg" cx="0" cy="0" r="1" gradientTransform="translate(640 240) rotate(20) scale(1400 900)" gradientUnits="userSpaceOnUse"><stop stop-color="#141416"/><stop offset="1" stop-color="#060607"/></radialGradient><radialGradient id="glow" cx="0" cy="0" r="1" gradientTransform="translate(1620 40) rotate(135) scale(900 720)" gradientUnits="userSpaceOnUse"><stop stop-color="#E50914" stop-opacity=".3"/><stop offset="1" stop-color="#E50914" stop-opacity="0"/></radialGradient><linearGradient id="acc" x1="0" x2="0" y1="0" y2="480" gradientUnits="userSpaceOnUse"><stop stop-color="#ff2b36"/><stop offset="1" stop-color="#8b0000"/></linearGradient><linearGradient id="chip" x1="0" x2="1" y1="0" y2="1"><stop stop-color="#161618"/><stop offset="1" stop-color="#0d0d0f"/></linearGradient></defs><rect width="1920" height="480" fill="url(#bg)"/><rect width="1920" height="480" fill="url(#glow)"/><g fill="#E50914" fill-opacity=".06"><path d="M1500 -40 L1604 -40 L1364 520 L1260 520 Z"/><path d="M1660 -40 L1716 -40 L1476 520 L1420 520 Z"/></g><g stroke="#fff" stroke-opacity=".03" stroke-width="1"><path d="M120 0V480M360 0V480M600 0V480M840 0V480M1080 0V480M1320 0V480M1560 0V480M1800 0V480"/><path d="M0 120H1920M0 240H1920M0 360H1920"/></g><rect width="12" height="480" x="0" y="0" fill="url(#acc)"/><text x="110" y="232" fill="#f5f5f7" font-family="'Arial Narrow', Impact, Arial, sans-serif" font-size="168" font-weight="800" letter-spacing="3">E‑<tspan fill="#E50914">BOT</tspan></text><text x="116" y="300" fill="#d7d7de" font-family="Arial, sans-serif" font-size="42" font-weight="700">All‑in‑one Discord bot <tspan fill="#E50914">+</tspan> web dashboard</text><g fill="#cfcfd6" font-family="Arial, sans-serif" font-size="26" font-weight="700"><g><rect width="196" height="52" x="116" y="346" fill="url(#chip)" stroke="#E50914" stroke-opacity=".4" rx="26"/><text x="214" y="380" text-anchor="middle">Moderation</text></g><g><rect width="166" height="52" x="328" y="346" fill="url(#chip)" stroke="#E50914" stroke-opacity=".4" rx="26"/><text x="411" y="380" text-anchor="middle">Leveling</text></g><g><rect width="172" height="52" x="510" y="346" fill="url(#chip)" stroke="#E50914" stroke-opacity=".4" rx="26"/><text x="596" y="380" text-anchor="middle">Economy</text></g><g><rect width="190" height="52" x="698" y="346" fill="url(#chip)" stroke="#E50914" stroke-opacity=".4" rx="26"/><text x="793" y="380" text-anchor="middle">AI + Live</text></g><g><rect width="232" height="52" x="904" y="346" fill="url(#chip)" stroke="#E50914" stroke-opacity=".4" rx="26"/><text x="1020" y="380" text-anchor="middle">14 languages</text></g></g><g font-family="Arial, sans-serif" text-anchor="end"><text x="1860" y="250" fill="#E50914" fill-opacity=".95" font-size="120" font-weight="800">95+</text><text x="1860" y="300" fill="#d7d7de" font-size="34" font-weight="700">slash commands</text><text x="1860" y="430" fill="#8a8a93" font-size="28" font-weight="600">e‑bot‑dc.vercel.app</text></g></svg>